<svg data-v-fde0c5aa="" xmlns="http://www.w3.org/2000/svg" viewBox="0 0 300 300" class="font"><!----><defs data-v-fde0c5aa=""><linearGradient data-v-fde0c5aa="" gradientTransform="rotate(25)" id="e3f7e205-c1b0-4190-9f6d-6e8b466fdd94" x1="0%" y1="0%" x2="100%" y2="0%"><stop data-v-fde0c5aa="" offset="0%" stop-color="#FF782C" stop-opacity="1"></stop><stop data-v-fde0c5aa="" offset="100%" stop-color="#741DF4" stop-opacity="1"></stop></linearGradient></defs><rect data-v-fde0c5aa="" fill="url(#e3f7e205-c1b0-4190-9f6d-6e8b466fdd94)" x="0" y="0" width="300px" height="300px" class="logo-background-square"></rect><defs data-v-fde0c5aa=""><!----></defs><g data-v-fde0c5aa="" id="fa7212c5-f565-4ffd-bad0-700b689e27e7" fill="#ffffff" transform="matrix(3.4034653786712625,0,0,3.4034653786712625,36.15408413833046,124.47401047141491)"><path d="M2.18 8.18L5.31 8.18C7.28 8.18 8.50 7.03 8.50 5.19C8.50 3.37 7.28 2.21 5.31 2.21L1.13 2.21L1.13 11.48L2.18 11.48ZM5.24 3.21C6.69 3.21 7.45 3.96 7.45 5.19C7.45 6.44 6.69 7.20 5.24 7.20L2.18 7.20L2.18 3.21ZM12.66 4.37C10.51 4.37 9.18 5.98 9.18 7.98C9.18 9.98 10.51 11.59 12.66 11.59C14.80 11.59 16.13 9.98 16.13 7.98C16.13 5.98 14.80 4.37 12.66 4.37ZM12.66 10.64C11.10 10.64 10.23 9.42 10.23 7.98C10.23 6.54 11.10 5.32 12.66 5.32C14.21 5.32 15.08 6.54 15.08 7.98C15.08 9.42 14.21 10.64 12.66 10.64ZM18.56 1.68L17.51 1.68L17.51 11.48L18.56 11.48ZM21.43 1.68L20.38 1.68L20.38 11.48L21.43 11.48ZM26.38 10.64C24.96 10.64 24.05 9.65 23.90 8.40L29.76 8.40L29.76 7.98C29.76 5.98 28.43 4.37 26.29 4.37C24.15 4.37 22.82 5.98 22.82 7.98C22.82 9.98 24.22 11.59 26.36 11.59C28.03 11.59 29.06 10.72 29.55 9.46L28.41 9.46C28.03 10.16 27.36 10.64 26.38 10.64ZM26.29 5.32C27.64 5.32 28.48 6.23 28.67 7.42L23.91 7.42C24.11 6.23 24.95 5.32 26.29 5.32ZM31.05 4.48L31.05 11.48L32.10 11.48L32.10 7.45C32.10 6.19 33.05 5.32 34.22 5.32C35.36 5.32 36.18 6.16 36.18 7.43L36.18 11.48L37.23 11.48L37.23 7.41C37.23 5.42 35.87 4.37 34.43 4.37C33.29 4.37 32.61 4.90 32.10 5.57L32.10 4.48ZM42.81 13.99L42.81 1.01L41.96 1.01L41.96 13.99ZM54.78 2.21L54.78 10.01L49.06 2.21L47.84 2.21L47.84 11.48L48.89 11.48L48.89 3.65L54.61 11.48L55.83 11.48L55.83 2.21ZM61.89 7.81L65.77 2.21L64.50 2.21L61.36 6.72L58.23 2.21L56.95 2.21L60.84 7.81L60.84 11.48L61.89 11.48Z"></path></g><!----><!----></svg>