<svg data-v-423bf9ae="" xmlns="http://www.w3.org/2000/svg" viewBox="0 0 298.79815871786195 60" class="font"><!----><!----><!----><g data-v-423bf9ae="" id="0561290b-3ec0-49f0-b028-405737de3e5b" fill="white" transform="matrix(4.622496310940746,0,0,4.622496310940746,-5.223419057297974,-4.668721468385172)"><path d="M2.18 8.18L5.31 8.18C7.28 8.18 8.50 7.03 8.50 5.19C8.50 3.37 7.28 2.21 5.31 2.21L1.13 2.21L1.13 11.48L2.18 11.48ZM5.24 3.21C6.69 3.21 7.45 3.96 7.45 5.19C7.45 6.44 6.69 7.20 5.24 7.20L2.18 7.20L2.18 3.21ZM12.66 4.37C10.51 4.37 9.18 5.98 9.18 7.98C9.18 9.98 10.51 11.59 12.66 11.59C14.80 11.59 16.13 9.98 16.13 7.98C16.13 5.98 14.80 4.37 12.66 4.37ZM12.66 10.64C11.10 10.64 10.23 9.42 10.23 7.98C10.23 6.54 11.10 5.32 12.66 5.32C14.21 5.32 15.08 6.54 15.08 7.98C15.08 9.42 14.21 10.64 12.66 10.64ZM18.56 1.68L17.51 1.68L17.51 11.48L18.56 11.48ZM21.43 1.68L20.38 1.68L20.38 11.48L21.43 11.48ZM26.38 10.64C24.96 10.64 24.05 9.65 23.90 8.40L29.76 8.40L29.76 7.98C29.76 5.98 28.43 4.37 26.29 4.37C24.15 4.37 22.82 5.98 22.82 7.98C22.82 9.98 24.22 11.59 26.36 11.59C28.03 11.59 29.06 10.72 29.55 9.46L28.41 9.46C28.03 10.16 27.36 10.64 26.38 10.64ZM26.29 5.32C27.64 5.32 28.48 6.23 28.67 7.42L23.91 7.42C24.11 6.23 24.95 5.32 26.29 5.32ZM31.05 4.48L31.05 11.48L32.10 11.48L32.10 7.45C32.10 6.19 33.05 5.32 34.22 5.32C35.36 5.32 36.18 6.16 36.18 7.43L36.18 11.48L37.23 11.48L37.23 7.41C37.23 5.42 35.87 4.37 34.43 4.37C33.29 4.37 32.61 4.90 32.10 5.57L32.10 4.48ZM42.81 13.99L42.81 1.01L41.96 1.01L41.96 13.99ZM54.78 2.21L54.78 10.01L49.06 2.21L47.84 2.21L47.84 11.48L48.89 11.48L48.89 3.65L54.61 11.48L55.83 11.48L55.83 2.21ZM61.89 7.81L65.77 2.21L64.50 2.21L61.36 6.72L58.23 2.21L56.95 2.21L60.84 7.81L60.84 11.48L61.89 11.48Z"></path></g><!----><!----></svg>