<svg data-v-423bf9ae="" xmlns="http://www.w3.org/2000/svg" viewBox="0 0 409 90" class="iconLeft"><!----><!----><!----><g data-v-423bf9ae="" id="b4b1e418-f601-4aa0-af3f-980964bf8564" fill="black" transform="matrix(4.622496310940746,0,0,4.622496310940746,104.77658094270203,10.331278531614828)"><path d="M2.18 8.18L5.31 8.18C7.28 8.18 8.50 7.03 8.50 5.19C8.50 3.37 7.28 2.21 5.31 2.21L1.13 2.21L1.13 11.48L2.18 11.48ZM5.24 3.21C6.69 3.21 7.45 3.96 7.45 5.19C7.45 6.44 6.69 7.20 5.24 7.20L2.18 7.20L2.18 3.21ZM12.66 4.37C10.51 4.37 9.18 5.98 9.18 7.98C9.18 9.98 10.51 11.59 12.66 11.59C14.80 11.59 16.13 9.98 16.13 7.98C16.13 5.98 14.80 4.37 12.66 4.37ZM12.66 10.64C11.10 10.64 10.23 9.42 10.23 7.98C10.23 6.54 11.10 5.32 12.66 5.32C14.21 5.32 15.08 6.54 15.08 7.98C15.08 9.42 14.21 10.64 12.66 10.64ZM18.56 1.68L17.51 1.68L17.51 11.48L18.56 11.48ZM21.43 1.68L20.38 1.68L20.38 11.48L21.43 11.48ZM26.38 10.64C24.96 10.64 24.05 9.65 23.90 8.40L29.76 8.40L29.76 7.98C29.76 5.98 28.43 4.37 26.29 4.37C24.15 4.37 22.82 5.98 22.82 7.98C22.82 9.98 24.22 11.59 26.36 11.59C28.03 11.59 29.06 10.72 29.55 9.46L28.41 9.46C28.03 10.16 27.36 10.64 26.38 10.64ZM26.29 5.32C27.64 5.32 28.48 6.23 28.67 7.42L23.91 7.42C24.11 6.23 24.95 5.32 26.29 5.32ZM31.05 4.48L31.05 11.48L32.10 11.48L32.10 7.45C32.10 6.19 33.05 5.32 34.22 5.32C35.36 5.32 36.18 6.16 36.18 7.43L36.18 11.48L37.23 11.48L37.23 7.41C37.23 5.42 35.87 4.37 34.43 4.37C33.29 4.37 32.61 4.90 32.10 5.57L32.10 4.48ZM42.81 13.99L42.81 1.01L41.96 1.01L41.96 13.99ZM54.78 2.21L54.78 10.01L49.06 2.21L47.84 2.21L47.84 11.48L48.89 11.48L48.89 3.65L54.61 11.48L55.83 11.48L55.83 2.21ZM61.89 7.81L65.77 2.21L64.50 2.21L61.36 6.72L58.23 2.21L56.95 2.21L60.84 7.81L60.84 11.48L61.89 11.48Z"></path></g><!----><g data-v-423bf9ae="" id="4b1c2ef6-e5e3-4851-ab96-37dbecbbd82a" transform="matrix(1.0215895098908114,0,0,1.0215895098908114,-5.128479177972231,-5.128479177972231)" stroke="none" fill="black"><g stroke-linecap="round" stroke-linejoin="round" stroke-miterlimit="10"><g><path d="M50.049 5.951s2.054 6.494 6.398 12.892c4.346 6.398 6.118 8.206 6.495 12.893.67 8.384-4.013 17.572-12.894 17.954h-.055c-8.882-.382-13.622-10.314-12.893-17.954.447-4.681 2.149-6.494 6.494-12.893 4.345-6.398 6.398-12.892 6.398-12.892h.057zM49.951 94.049s-2.053-6.494-6.398-12.893c-4.345-6.397-6.119-8.205-6.494-12.893-.671-8.384 4.011-17.571 12.893-17.953h.055c8.881.382 13.622 10.314 12.893 17.953-.447 4.682-2.148 6.495-6.495 12.893-4.345 6.398-6.398 12.893-6.398 12.893h-.056z"></path><g><path d="M94.049 50.048s-6.494 2.055-12.893 6.4c-6.397 4.345-8.204 6.117-12.892 6.493-8.384.671-17.572-4.012-17.954-12.894v-.055c.382-8.881 10.314-13.621 17.954-12.892 4.681.447 6.494 2.149 12.892 6.494s12.893 6.397 12.893 6.397v.057zM5.951 49.951s6.494-2.054 12.893-6.398c6.398-4.345 8.205-6.119 12.893-6.494 8.384-.671 17.571 4.011 17.954 12.893v.056c-.382 8.88-10.314 13.621-17.954 12.892-4.681-.446-6.494-2.148-12.893-6.493-6.398-4.346-12.893-6.399-12.893-6.399v-.057z"></path></g></g><g><path d="M81.183 18.888s-3.141 6.043-4.593 13.641c-1.451 7.597-1.476 10.128-4.523 13.708-5.454 6.403-15.261 9.589-21.812 3.579l-.039-.039c-6.01-6.55-2.338-16.925 3.579-21.812 3.627-2.994 6.111-3.073 13.709-4.524 7.596-1.452 13.64-4.592 13.64-4.592l.039.039zM18.818 81.112s3.14-6.044 4.592-13.641c1.452-7.596 1.476-10.128 4.524-13.708 5.454-6.402 15.261-9.589 21.812-3.578l.039.039c6.009 6.55 2.337 16.925-3.579 21.811-3.626 2.995-6.111 3.072-13.708 4.524-7.597 1.451-13.641 4.592-13.641 4.592l-.039-.039z"></path><g><path d="M81.113 81.183s-6.045-3.141-13.642-4.593c-7.596-1.451-10.128-1.476-13.708-4.523-6.402-5.454-9.589-15.262-3.579-21.812l.039-.039c6.55-6.01 16.925-2.338 21.811 3.58 2.995 3.625 3.072 6.109 4.524 13.708 1.452 7.596 4.593 13.64 4.593 13.64l-.038.039zM18.888 18.818s6.044 3.14 13.641 4.592c7.597 1.452 10.128 1.476 13.708 4.524 6.403 5.454 9.589 15.261 3.579 21.812l-.039.039c-6.55 6.01-16.925 2.338-21.812-3.579-2.994-3.625-3.073-6.111-4.524-13.708-1.452-7.597-4.592-13.641-4.592-13.641l.039-.039z"></path></g></g><circle cx="50" cy="50" r="1.709"></circle></g></g><!----></svg>